<svg width="203" height="28" viewBox="0 0 203 28" fill="none" xmlns="http://www.w3.org/2000/svg">
<path d="M1.49201 23.9999V5.47415H9.10126C10.3778 5.47415 11.505 5.69795 12.4831 6.14556C13.4778 6.59316 14.257 7.25627 14.8206 8.1349C15.3843 9.01353 15.6661 10.0993 15.6661 11.3924C15.6661 12.6523 15.376 13.7216 14.7958 14.6002C14.2321 15.4789 13.4529 16.1503 12.4583 16.6145C11.4802 17.0621 10.3612 17.2859 9.10126 17.2859H5.34637V23.9999H1.49201ZM5.34637 13.9288H9.12612C9.93844 13.9288 10.585 13.6967 11.0657 13.2326C11.5631 12.7684 11.8117 12.155 11.8117 11.3924C11.8117 10.6133 11.5631 9.99162 11.0657 9.52744C10.585 9.06326 9.93844 8.83117 9.12612 8.83117H5.34637V13.9288ZM23.3187 24.2983C21.9759 24.2983 20.7491 23.9916 19.6384 23.3782C18.5442 22.7648 17.6739 21.9277 17.0274 20.8667C16.3808 19.7891 16.0576 18.5706 16.0576 17.2113C16.0576 15.8353 16.3808 14.6168 17.0274 13.5558C17.6739 12.4949 18.5442 11.6577 19.6384 11.0443C20.7491 10.4309 21.9759 10.1242 23.3187 10.1242C24.6615 10.1242 25.8799 10.4309 26.9741 11.0443C28.0848 11.6577 28.9634 12.4949 29.61 13.5558C30.2565 14.6168 30.5798 15.8353 30.5798 17.2113C30.5798 18.5706 30.2565 19.7891 29.61 20.8667C28.9634 21.9277 28.0848 22.7648 26.9741 23.3782C25.8799 23.9916 24.6615 24.2983 23.3187 24.2983ZM23.3187 20.9413C24.3465 20.9413 25.1671 20.5931 25.7805 19.8969C26.4104 19.2006 26.7254 18.3054 26.7254 17.2113C26.7254 16.1337 26.4104 15.2468 25.7805 14.5505C25.1671 13.8377 24.3465 13.4812 23.3187 13.4812C22.3074 13.4812 21.4868 13.8377 20.8568 14.5505C20.2269 15.2468 19.9119 16.1337 19.9119 17.2113C19.9119 18.3054 20.2269 19.2006 20.8568 19.8969C21.4868 20.5931 22.3074 20.9413 23.3187 20.9413ZM32.0724 23.9999V10.4226H35.5537V12.4617C35.9019 11.6162 36.3909 11.0443 37.0209 10.7459C37.6674 10.4309 38.4051 10.2734 39.234 10.2734H40.6514V13.5061H38.861C37.9492 13.5061 37.2115 13.7879 36.6479 14.3516C36.0842 14.8986 35.8024 15.6778 35.8024 16.6891V23.9999H32.0724ZM48.9023 24.1491C47.2611 24.1491 45.9846 23.7098 45.0729 22.8312C44.1776 21.936 43.73 20.6926 43.73 19.1011V13.6553H41.3926V10.4226H41.5666C43.0089 10.4226 43.73 9.72638 43.73 8.33383V6.34449H47.4601V10.4226H50.643V13.6553H47.4601V19.1011C47.4601 20.4771 48.2309 21.1651 49.7727 21.1651C50.0048 21.1651 50.2949 21.1402 50.643 21.0905V24.0248C50.0959 24.1077 49.5157 24.1491 48.9023 24.1491ZM53.2128 23.9999V13.6553H50.9002V10.4226H53.2128V10.0247C53.2128 8.41672 53.6853 7.17338 54.6303 6.29476C55.5752 5.41613 56.8931 4.97681 58.5841 4.97681C59.0814 4.97681 59.5207 5.01826 59.902 5.10115V8.2841C59.587 8.23437 59.3135 8.2095 59.0814 8.2095C57.6557 8.2095 56.9429 8.81459 56.9429 10.0247V10.4226H59.8772V13.6553H56.9429V23.9999H53.2128ZM67.4194 24.2983C66.0766 24.2983 64.8498 23.9916 63.7391 23.3782C62.6449 22.7648 61.7746 21.9277 61.1281 20.8667C60.4815 19.7891 60.1583 18.5706 60.1583 17.2113C60.1583 15.8353 60.4815 14.6168 61.1281 13.5558C61.7746 12.4949 62.6449 11.6577 63.7391 11.0443C64.8498 10.4309 66.0766 10.1242 67.4194 10.1242C68.7622 10.1242 69.9807 10.4309 71.0748 11.0443C72.1855 11.6577 73.0641 12.4949 73.7107 13.5558C74.3572 14.6168 74.6805 15.8353 74.6805 17.2113C74.6805 18.5706 74.3572 19.7891 73.7107 20.8667C73.0641 21.9277 72.1855 22.7648 71.0748 23.3782C69.9807 23.9916 68.7622 24.2983 67.4194 24.2983ZM67.4194 20.9413C68.4472 20.9413 69.2678 20.5931 69.8812 19.8969C70.5112 19.2006 70.8261 18.3054 70.8261 17.2113C70.8261 16.1337 70.5112 15.2468 69.8812 14.5505C69.2678 13.8377 68.4472 13.4812 67.4194 13.4812C66.4081 13.4812 65.5875 13.8377 64.9576 14.5505C64.3276 15.2468 64.0126 16.1337 64.0126 17.2113C64.0126 18.3054 64.3276 19.2006 64.9576 19.8969C65.5875 20.5931 66.4081 20.9413 67.4194 20.9413ZM76.1731 23.9999V5.47415H79.9031V23.9999H76.1731ZM82.1411 9.20417V5.47415H85.8711V9.20417H82.1411ZM82.1411 23.9999V10.4226H85.8711V23.9999H82.1411ZM94.6243 24.2983C93.2814 24.2983 92.0547 23.9916 90.944 23.3782C89.8498 22.7648 88.9795 21.9277 88.3329 20.8667C87.6864 19.7891 87.3631 18.5706 87.3631 17.2113C87.3631 15.8353 87.6864 14.6168 88.3329 13.5558C88.9795 12.4949 89.8498 11.6577 90.944 11.0443C92.0547 10.4309 93.2814 10.1242 94.6243 10.1242C95.9671 10.1242 97.1855 10.4309 98.2797 11.0443C99.3904 11.6577 100.269 12.4949 100.916 13.5558C101.562 14.6168 101.885 15.8353 101.885 17.2113C101.885 18.5706 101.562 19.7891 100.916 20.8667C100.269 21.9277 99.3904 22.7648 98.2797 23.3782C97.1855 23.9916 95.9671 24.2983 94.6243 24.2983ZM94.6243 20.9413C95.6521 20.9413 96.4727 20.5931 97.0861 19.8969C97.716 19.2006 98.031 18.3054 98.031 17.2113C98.031 16.1337 97.716 15.2468 97.0861 14.5505C96.4727 13.8377 95.6521 13.4812 94.6243 13.4812C93.613 13.4812 92.7924 13.8377 92.1624 14.5505C91.5325 15.2468 91.2175 16.1337 91.2175 17.2113C91.2175 18.3054 91.5325 19.2006 92.1624 19.8969C92.7924 20.5931 93.613 20.9413 94.6243 20.9413ZM116.574 24.2983C115.248 24.2983 114.013 24.0579 112.869 23.5772C111.742 23.0964 110.756 22.425 109.91 21.563C109.065 20.7009 108.402 19.6897 107.921 18.5292C107.457 17.3687 107.225 16.1005 107.225 14.7246C107.225 13.3486 107.457 12.0804 107.921 10.92C108.385 9.74296 109.04 8.73171 109.885 7.88623C110.731 7.02418 111.717 6.36107 112.844 5.89689C113.988 5.41613 115.232 5.17575 116.574 5.17575C117.917 5.17575 119.119 5.39955 120.18 5.84715C121.258 6.29476 122.169 6.89156 122.916 7.63756C123.662 8.38357 124.192 9.21246 124.507 10.1242L121.1 11.7654C120.785 10.8702 120.23 10.1325 119.434 9.55231C118.655 8.95551 117.702 8.6571 116.574 8.6571C115.48 8.6571 114.519 8.91406 113.69 9.42798C112.861 9.94189 112.214 10.6547 111.75 11.5665C111.303 12.4617 111.079 13.5144 111.079 14.7246C111.079 15.9348 111.303 16.9957 111.75 17.9075C112.214 18.8193 112.861 19.5322 113.69 20.0461C114.519 20.56 115.48 20.8169 116.574 20.8169C117.702 20.8169 118.655 20.5268 119.434 19.9466C120.23 19.3498 120.785 18.6038 121.1 17.7086L124.507 19.3498C124.192 20.2616 123.662 21.0905 122.916 21.8365C122.169 22.5825 121.258 23.1793 120.18 23.6269C119.119 24.0745 117.917 24.2983 116.574 24.2983ZM126.242 23.9999V10.4226H129.723V12.4617C130.071 11.6162 130.56 11.0443 131.19 10.7459C131.837 10.4309 132.575 10.2734 133.403 10.2734H134.821V13.5061H133.03C132.119 13.5061 131.381 13.7879 130.817 14.3516C130.254 14.8986 129.972 15.6778 129.972 16.6891V23.9999H126.242ZM142.437 24.2983C141.011 24.2983 139.76 23.9833 138.682 23.3534C137.621 22.7068 136.792 21.8448 136.195 20.7672C135.615 19.6897 135.325 18.496 135.325 17.1864C135.325 15.827 135.623 14.6168 136.22 13.5558C136.834 12.4949 137.654 11.6577 138.682 11.0443C139.726 10.4309 140.895 10.1242 142.188 10.1242C143.465 10.1242 144.609 10.4226 145.62 11.0194C146.631 11.6162 147.435 12.4203 148.032 13.4315C148.629 14.4262 148.927 15.5535 148.927 16.8134C148.927 17.0786 148.911 17.3439 148.877 17.6091C148.861 17.8578 148.819 18.0733 148.753 18.2557H139.204C139.32 19.1011 139.668 19.7808 140.249 20.2947C140.829 20.8087 141.575 21.0656 142.487 21.0656C143.15 21.0656 143.713 20.933 144.178 20.6677C144.658 20.4025 145.031 20.0378 145.297 19.5736L148.281 20.991C147.866 21.9857 147.137 22.7897 146.092 23.4031C145.048 23.9999 143.829 24.2983 142.437 24.2983ZM142.188 13.1082C141.459 13.1082 140.837 13.3155 140.323 13.7299C139.809 14.1444 139.461 14.7412 139.279 15.5203H144.973C144.907 14.7909 144.617 14.2107 144.103 13.7796C143.606 13.332 142.967 13.1082 142.188 13.1082ZM154.451 24.2983C153.423 24.2983 152.528 24.1242 151.766 23.7761C151.02 23.4114 150.439 22.9306 150.025 22.3338C149.627 21.7204 149.428 21.0407 149.428 20.2947C149.428 19.2835 149.809 18.4546 150.572 17.8081C151.335 17.1449 152.404 16.6725 153.78 16.3907L158.032 15.4954V15.0478C158.032 14.5339 157.841 14.1278 157.46 13.8294C157.079 13.5144 156.573 13.3569 155.943 13.3569C155.28 13.3569 154.692 13.5393 154.178 13.904C153.68 14.2521 153.332 14.7329 153.133 15.3462L149.926 13.8045C150.323 12.6772 151.061 11.782 152.139 11.1189C153.233 10.4558 154.501 10.1242 155.943 10.1242C157.104 10.1242 158.115 10.3314 158.977 10.7459C159.856 11.1603 160.535 11.7406 161.016 12.4866C161.513 13.216 161.762 14.0698 161.762 15.0478V23.9999H158.281V22.7566C157.767 23.3036 157.195 23.7015 156.565 23.9502C155.952 24.1823 155.247 24.2983 154.451 24.2983ZM153.283 20.245C153.283 20.6595 153.44 20.9827 153.755 21.2148C154.07 21.4469 154.493 21.563 155.023 21.563C155.869 21.563 156.582 21.2977 157.162 20.7672C157.742 20.2367 158.032 19.5902 158.032 18.8276V18.1811L154.451 18.9768C153.672 19.1592 153.283 19.5819 153.283 20.245ZM170.015 24.1491C168.374 24.1491 167.098 23.7098 166.186 22.8312C165.291 21.936 164.843 20.6926 164.843 19.1011V13.6553H162.506V10.4226H162.68C164.122 10.4226 164.843 9.72638 164.843 8.33383V6.34449H168.573V10.4226H171.756V13.6553H168.573V19.1011C168.573 20.4771 169.344 21.1651 170.886 21.1651C171.118 21.1651 171.408 21.1402 171.756 21.0905V24.0248C171.209 24.1077 170.629 24.1491 170.015 24.1491ZM179.772 24.2983C178.429 24.2983 177.202 23.9916 176.091 23.3782C174.997 22.7648 174.127 21.9277 173.48 20.8667C172.834 19.7891 172.511 18.5706 172.511 17.2113C172.511 15.8353 172.834 14.6168 173.48 13.5558C174.127 12.4949 174.997 11.6577 176.091 11.0443C177.202 10.4309 178.429 10.1242 179.772 10.1242C181.115 10.1242 182.333 10.4309 183.427 11.0443C184.538 11.6577 185.417 12.4949 186.063 13.5558C186.71 14.6168 187.033 15.8353 187.033 17.2113C187.033 18.5706 186.71 19.7891 186.063 20.8667C185.417 21.9277 184.538 22.7648 183.427 23.3782C182.333 23.9916 181.115 24.2983 179.772 24.2983ZM179.772 20.9413C180.8 20.9413 181.62 20.5931 182.234 19.8969C182.864 19.2006 183.178 18.3054 183.178 17.2113C183.178 16.1337 182.864 15.2468 182.234 14.5505C181.62 13.8377 180.8 13.4812 179.772 13.4812C178.76 13.4812 177.94 13.8377 177.31 14.5505C176.68 15.2468 176.365 16.1337 176.365 17.2113C176.365 18.3054 176.68 19.2006 177.31 19.8969C177.94 20.5931 178.76 20.9413 179.772 20.9413ZM188.525 23.9999V10.4226H192.007V12.4617C192.355 11.6162 192.844 11.0443 193.474 10.7459C194.12 10.4309 194.858 10.2734 195.687 10.2734H197.104V13.5061H195.314C194.402 13.5061 193.665 13.7879 193.101 14.3516C192.537 14.8986 192.255 15.6778 192.255 16.6891V23.9999H188.525Z" fill="white"/>
<path d="M197.244 24V20.27H200.974V24H197.244Z" fill="url(#paint0_linear_1_942)"/>
<defs>
<linearGradient id="paint0_linear_1_942" x1="195.011" y1="20.5372" x2="202.186" y2="20.5302" gradientUnits="userSpaceOnUse">
<stop offset="0.197917" stop-color="#B16CEA"/>
<stop offset="0.557292" stop-color="#FF5E69"/>
<stop offset="0.828125" stop-color="#FF8A56"/>
<stop offset="1" stop-color="#FFA84B"/>
</linearGradient>
</defs>
</svg>
